<svg xmlns="http://www.w3.org/2000/svg" viewBox="0 0 716.71 95.52"><path d="M398.4.24c.61.54 1.23 1.05 1.81 1.62.19.19.4.51.37.75-.11 1.09-.1 2.25-.51 3.24-.5 1.2-1.2 2.44-2.13 3.32-1.15 1.1-2.65 1.81-3.95 2.77-.34.25-.61.8-.62 1.22-.02 1.11 0 2.18-.78 3.1-.56.66-.88 1.33-.41 2.26.18.36-.26.97-.25 1.46.08 2.65.15 5.3.34 7.95.12 1.71.42 3.41.65 5.11l1.16 8.82c1.63-1.76 3.04-3.24 4.4-4.77 1.38-1.55 2.73-3.12 4.06-4.71 1.46-1.74 2.87-3.52 4.34-5.25 1.55-1.83 3.18-3.6 4.72-5.44 1.44-1.71 2.89-3.42 4.18-5.25 1.47-2.08.66-3.69-1.79-3.99-.31-.83-.71-1.6-.86-2.42-.11-.58-.08-1.37.24-1.81 1.16-1.6 2.34-3.22 4.25-4.07.89-.4 1.42-.72 2.3.43 1.28 1.7 3.46 1.34 5.34 1.05 1.6-.24 3.15-.94 4.76-1.07 1-.08 2.3-.12 2.97 1.11.35.63 1.04 1.19 1.13 1.84.26 1.96-1.49 3.7-3.48 3.76-1.27.04-2.74-.5-3.6 1.05-.37.67-.76 1.37-1.29 1.9-.64.64-1.46 1.09-2.18 1.65-.47.36-.87.65-.54 1.46.49 1.19-.74 3.32-2.15 4.09-.89.48-1.95.81-2.61 1.52-1.04 1.11-1.78 2.5-2.69 3.74-.27.37-.62.69-.98.98-.64.53-1.33.98-1.95 1.53-.61.55-.8 1.13-.67 2.08.16 1.21-.22 2.48.49 3.64.85 1.41 1.63 2.87 2.51 4.27 2.1 3.34 4.18 6.69 6.36 9.97 1.73 2.6 3.58 5.13 5.43 7.66.83 1.14 1.78 2.2 2.68 3.29 1.23 1.47 2.51 2.88 3.68 4.39.53.69.69 1.72 1.29 2.3.75.72 1.75 1.25 2.72 1.65 1.13.46 2.37.5 3.15 1.79.37.62 1.48.76 2.17 1.24 1.69 1.18 1.53 3.9-.31 4.9-2.33 1.27-4.76 2.45-7.51 1.82-1.1-.25-2.07-1.06-3.1-1.61-.39-.21-.76-.46-1.17-.6-1.21-.41-2.43-.78-3.65-1.16-.18-.06-.4-.19-.55-.14-2.06.65-2.38-1.45-3.34-2.33-.54-.49-.38-1.96-.19-2.92.07-.38 1.05-.7 1.67-.83 1.45-.31 1.95-.88 2.15-2.37.15-1.1-.41-1.86-.97-2.64-.75-1.07-1.57-2.1-2.34-3.16-1.22-1.68-2.45-3.35-3.62-5.06-1.07-1.56-2.05-3.2-3.12-4.76-1.56-2.26-3.2-4.46-4.77-6.72-1.14-1.64-2.27-3.29-3.32-4.99-.41-.67-.55-1.49-.86-2.23-.17-.41-.45-.77-.82-1.38-.93 1.49-1.67 2.8-2.53 4.02-.63.9-1.36 1.75-2.14 2.51-1.85 1.81-2.66 4.24-3.73 6.46-.68 1.42-1.39 2.49-2.79 3.15-.3.14-.56.63-.61.98-.09.75-.1 1.52-.02 2.27.28 2.53.55 5.06.95 7.57.24 1.49.7 2.94 1.05 4.42.05.23.03.48.03.72 0 1.3-.05 2.61.02 3.91.06 1.22.16 2.44.4 3.63.2.98.76 1.76 1.78 2.21 2.28.99 3.63 3.96 2.91 6.3-.07.24-.39.49-.65.58-.98.33-1.91.62-3.04.46-1.07-.15-2.21.29-3.32.46-.31.05-.65.11-.95.06-1.82-.33-3.51.26-5.26.56-1.2.2-2.5-.14-3.75-.31-.92-.12-1.83-.47-2.75-.51-1.65-.08-2.54-1.13-3.07-2.43-.47-1.17-.23-2.48.52-3.52.34-.47 1.07-.63 1.58-.99.74-.54 1.12.22 1.67.36 2.24.57 4.5.93 6.68-.29.3-.17.63-.3 1.08-.51-.16-2.32.38-4.76-.58-7.16-.36-.92-.29-2.01-.43-3.02-.1-.69-.28-1.38-.32-2.08-.06-.99.08-1.99-.03-2.96-.25-2.25-.6-4.49-.91-6.74-.02-.12-.1-.26-.06-.34.93-2.02-.36-3.94-.3-5.94.03-1.05-.48-2.11-.75-3.16-.11-.45-.27-.91-.31-1.37-.16-1.86-.42-3.73-.36-5.59.03-.78.59-1.75 1.21-2.26.92-.77 1.21-1.64 1.1-2.69-.15-1.48-.45-2.95-.64-4.43-.21-1.68-.39-3.37-.53-5.06-.25-3.06-.45-6.13-.73-9.19-.04-.41-.45-.78-.68-1.18-1.02-1.76-2.04-3.51-3.05-5.28-.11-.19-.14-.46-.12-.69.05-.77.2-1.54.21-2.31.03-2.11 1.69-3.06 3.09-3.98 1.15-.76 2.68-.95 3.96-1.36 1.26 1.73 3.04 1.95 4.63.94.71-.45 1.6-.6 2.4-.91.22-.09.41-.27.61-.41h.24ZM.24 62c.74-.96 1.46-1.92 2.21-2.88C5 55.86 7 52.18 10.09 49.34c.47-.43.75-1.27 1.25-1.39.85-.22 1.85-.18 2.72.03 1.38.34 1.52 1.67 1.82 2.79.16.6.17 1.25.41 1.81.52 1.25.35 2.4-.34 3.49-.75 1.19-1.21 2.52-2.61 3.32-1.58.89-1.53 2.59-.86 4.49.86 2.45 2.61 4.25 3.93 6.37.85 1.36 1.38 2.91 2.09 4.35 1.26 2.56 2.23 5.33 5.35 6.39 2.45.84 4.89.79 7.34.24 2.57-.58 5.16-1.14 7.39-2.63 1.7-1.14 3.05-2.57 3.69-4.61.57-1.81 1.24-3.59 1.95-5.35.97-2.4.34-4.86.44-7.29.02-.56.07-1.12.03-1.67a101.6 101.6 0 0 0-.35-3.88c-.16-1.48-.33-2.96-.54-4.44-.1-.67-.34-1.33-.5-1.99-.06-.23-.16-.49-.1-.69.54-1.65 0-3.09-.62-4.61-.36-.88-.16-1.99-.22-3-.01-.23.02-.46-.02-.68-.56-2.6-1.06-5.22-1.73-7.79-.46-1.78-1.14-3.51-1.73-5.26-.63-1.86-1.1-3.79-1.95-5.54-.76-1.57-.7-3.56-2.29-4.71-.3-.22-.75-.36-1.12-.33-3.29.26-4.01-.19-5.09-3.48-.32-.98-.04-2.65.64-3.32.68-.68 2.38-.96 3.33-.61 2.16.8 3.99.86 6.11-.2 1.58-.79 3.51-.94 5.25-.06.34.17.54.62.78.96.56.82.99 1.78 1.69 2.46.89.86 1.41 1.93.96 2.93-.34.77-1.42 1.24-2.2 1.79-.12.09-.43-.13-.66-.15-.88-.06-1.4.43-1.44 1.24-.13 2.48.41 4.85 1.11 7.22.68 2.33 1.19 4.71 1.74 7.08.52 2.24 1.04 4.48 1.48 6.74.23 1.19.21 2.43.4 3.63.43 2.58.95 5.14 1.38 7.71.2 1.25.26 2.52.39 3.78.25 2.51.68 5.02.72 7.53.04 2.35-.17 4.74-.55 7.06-.31 1.9-.87 3.81-1.66 5.57-.66 1.48-.76 3.02-1.2 4.48-.33 1.07-1.59 2-2.64 2.66-1.71 1.06-3.58 1.89-5.42 2.72-.58.26-1.31.19-1.97.26-.12.01-.25-.03-.36 0-1.43.57-2.86 1.15-4.29 1.72-.22.09-.45.2-.67.18-2.19-.19-4.36.26-6.6-.52-1.24-.43-2.73-.5-3.94-1.12-1.18-.61-2.35-1.42-3.22-2.4-2.15-2.43-3.28-5.48-4.65-8.38-.88-1.88-1.86-3.72-2.95-5.49-.48-.79-1.29-1.41-2.03-2-.19-.15-.8-.02-1.06.18-1.06.81-2.07.85-3.1-.01-.18-.15-.4-.26-.63-.31-1.49-.36-1.91-1.52-2.23-2.81-.12-.47-.47-.88-.71-1.31v-.48ZM312.87 20.19c-.89.57-2.11.33-1.6 1.89.13.41-.77 1.08-1.02 1.71-.73 1.84-1.36 3.73-2.06 5.58-.22.57-.73 1.09-.77 1.67-.14 1.73-1.25 3.06-2.06 4.36-.81 1.3-.95 2.68-1.55 3.96-.62 1.34-1.13 2.74-2.62 3.51-.69.36-1.66.98-.66 2.13-1.05.84-2 1.77-3.12 2.42-.61.36-1.55.47-2.24.29-1.07-.27-2.04-.92-3.09-1.32-.46-.17-1.01-.15-1.52-.16-2.09-.02-3.25-.8-4.07-2.74-.15-.35-.43-.66-.56-1.01-.13-.33-.3-.77-.18-1.04.41-.88.89-1.74 1.45-2.52.5-.7.49-1.31-.24-1.68-.81-.42-1.21-1.12-1.77-1.75-1.25-1.42-2.77-2.61-4.24-3.83-.75-.62-1.67-1.03-2.42-1.66-1.2-1.01-2.35-2.04-3.87-2.64-.72-.28-1.19-1.15-1.81-1.7-.23-.21-.73-.46-.86-.36-.26.2-.45.61-.51.96-.39 2.2.29 4.27.75 6.38.21.96.04 2 .03 3-.01.83-.1 1.67-.06 2.5.04.9.22 1.79.29 2.69.24 3.14.47 6.28.67 9.42.05.84-.04 1.69.02 2.53.09 1.12.27 2.24.39 3.36.11.99.2 1.97.29 2.96.12 1.21.26 2.42.35 3.63.11 1.52.16 3.04.27 4.56.07 1.1.18 2.21.28 3.31.01.16.01.35.1.46 2.21 2.48 1.54 5.61 1.89 8.49.17 1.41-1.32 2.11-1.94 3.21-.05.09-.4.08-.57.02-1.43-.57-2.81-1.3-4.29-1.71-1.17-.32-2.44-.26-3.66-.36-.41-.04-.87.03-1.22-.13-1.13-.53-2.24-1.11-3.32-1.73-.9-.52-1.17-1.81-.7-2.8 1-2.13 4.16-2.82 6.17-1.94.28.12.74.06 1.02-.1.15-.08.11-.54.11-.83 0-.35-.04-.7-.04-1.06 0-.64.03-1.27 0-1.91-.02-.61-.27-1.28-.1-1.82.43-1.36.7-2.65-.06-3.98-.15-.27-.02-.7-.03-1.06 0-.61-.02-1.23 0-1.84.01-.26.15-.51.19-.77.06-.42.14-.85.11-1.27-.09-1.19-.23-2.38-.35-3.57-.2-1.91-.45-3.81-.59-5.72-.11-1.43-.06-2.86-.11-4.29-.06-1.58-.13-3.15-.24-4.73-.1-1.33-.28-2.66-.4-3.99-.13-1.37-.3-2.75-.31-4.12 0-.57.22-1.24.56-1.69.66-.86 1.16-1.63.83-2.82-.36-1.31-.59-2.67-.71-4.02-.2-2.32-.17-4.66-.42-6.97-.12-1.1-.9-2.13-.98-3.22-.15-1.99-.71-3.3-3-3.41-.69-.03-1.71-.53-1.96-1.1-.58-1.29-.83-2.75-1.11-4.15-.06-.28.27-.82.56-.96 1.31-.62 2.52-1.67 4.19-.95.51.22 1.22-.05 1.81.07 1.48.31 2.94.71 4.41 1.08.11.03.2.16.3.18 1.5.23 3 .55 4.51.64.88.05 1.27.45 1.35 1.16.15 1.47.14 2.95-.94 4.15-.9.99-.96 1.98-.25 3.12 1.71 2.77 3.28 5.62 5.1 8.32.98 1.45 2.37 2.61 3.53 3.94.37.42.54 1.03.93 1.43.8.8 1.64 1.57 2.55 2.24.68.51 1.47.91 2.26 1.22.27.11.73-.16 1.06-.34.7-.4 1.2-.43 1.62.43.69 1.42 1.93 2.07 3.47 1.88.28-.04.62-.32.78-.58 1.43-2.37 2.8-4.77 4.22-7.14 2.17-3.61 3.96-7.38 5.11-11.43.1-.34-.05-.87-.28-1.15-1.35-1.58-1.29-3.67.16-5.16.27-.28.42-.77.46-1.17.1-1.12 1.34-1.88 2.38-1.52.68.24 1.44.25 2.17.32.46.04.95.07 1.4-.03.31-.07.63-.34.81-.62.8-1.18.95-1.11 2.19-.42 1.12.63 2.39 1.05 3.64 1.36.97.24 1.65.85 1.61 1.93 0 .23-.04.49.04.69.9 2.03-.17 3.69-.96 5.42-.27.59-.5 1.19-.73 1.8-.44 1.16-.91 2.32-1.27 3.5-.11.35.18.8.15 1.2-.11 1.69-.29 3.37-.41 5.06-.04.51-.05 1.06.11 1.52.33.98.59 1.87.14 2.93-.26.6-.26 1.45-.05 2.08.54 1.61.76 3.24 1.02 4.9.65 4.21.64 8.42.79 12.65.07 2 .46 4 .35 6.02-.04.69-.28 1.36-.35 2.05-.07.67-.2 1.42.02 2.01.22.59.15.97.03 1.58-.44 2.22-.71 4.49-.85 6.76-.04.63.49 1.36.9 1.95.58.84 1.36 1.57.68 2.72-.05.09.1.34.2.48.69.98 1.3 2.05 2.51 2.52 1.01.39 2.02.8 3.03 1.18.68.26.99 2.06.4 2.86-.86 1.18-1.8 2.31-2.75 3.42-.21.24-.59.39-.92.45-.77.15-1.55.28-2.32.31-.4.01-.9-.11-1.21-.35-1.27-.95-2.8-.99-3.99 0-.65.54-1.48.35-2.13-.34-.37-.4-.92-.64-1.4-.93-.23-.14-.66-.17-.72-.34-.47-1.34-1.63-1.15-2.68-1.4-2.2-.52-3.28-2.76-2.4-4.54.36-.74.81-.84 1.53-.61 1.77.57 1.77.54 2.91-1.06.15-.21.51-.32.79-.38 1.71-.36 2.24-.95 2.21-2.7-.02-1.43-.16-2.85-.19-4.27-.01-.42.12-.84.22-1.26.32-1.4.52-2.84 1.01-4.18 1.18-3.25.33-6.65.9-9.95.24-1.42-.21-2.96-.33-4.45-.04-.48.01-.96-.02-1.44-.05-.61-.17-1.21-.22-1.81-.13-1.85-.18-3.71-.37-5.55-.12-1.11-.49-2.19-.69-3.29-.21-1.16-.42-2.33-.49-3.51-.16-2.57-.25-5.14-.34-7.71-.04-1.07 0-2.15 0-3.46ZM706.27 81.73c.1-1.9.32-3.8.24-5.69-.05-1.36.74-1.88 1.7-2.2 2.03-.68 3.49.36 4.24 2.37.35.95 1.3 1.81 2.19 2.4 1.28.85 1.59 2.08 1.26 3.26-.49 1.79.28 3.27.62 4.89.31 1.48.22 2.97-.52 4.36-.09.17-.3.43-.24.52.79 1.35-.64 1.94-1.02 2.88-.1.24-.6.32-.93.44-.09.03-.24-.07-.31-.03-2.29 1.23-3.96-.5-5.82-1.24-2.08-.83-2.95-2.67-3.63-4.63-.32-.93-1.91-1.81-3.13-1.73-1.62.1-3.39-.16-4.84.39-2.45.92-4.96.2-7.39.82-1.21.31-2.51.23-3.77.37-.46.05-.9.25-1.36.33-.39.07-.78.07-1.18.08-.28 0-.56-.07-.83-.02-2.35.4-4.7.81-7.04 1.26-.49.09-1 .27-1.41.54-1.07.69-2.2.59-3.17.02-1.34-.78-2.71-1.58-2.35-3.64.19-1.06.51-2.38-.65-3.31-.08-.07-.02-.51.11-.61 1.53-1.17.99-2.81.75-4.19-.48-2.69-1.14-5.34-.91-8.12.13-1.59-.1-3.21.05-4.79.2-2.09.74-4.15.92-6.24.12-1.36.13-2.84-.3-4.1-.42-1.24.03-2.18.46-3.1.9-1.94.76-3.78.02-5.69-.18-.47-.25-1-.26-1.51-.07-2.69-.05-5.38-.16-8.06-.05-1.08-.36-2.15-.56-3.22-.02-.11-.14-.23-.12-.33.38-2.37-1.45-3.86-2.26-5.76-.33-.78-.23-1.76-.26-2.65-.04-.92.12-1.86-.03-2.75-.4-2.35 1.09-3.95 2.29-5.55.54-.73 1.83-1.15 2.82-1.23.98-.08 2.11.2 2.71 1.3.39.71.86 1.37 1.33 2.03.22.3.53.54.8.81.51.51 1.03 1.01 1.54 1.52.22.22.46.64.68.63 1.77-.07 3.16 1.18 5.02 1.16 2.74-.04 5.56.31 8.22.99 1.85.47 3.51.4 5.34.27 1.43-.1 3-.44 4.51.4.74.41 1.91.32 2.8.1.87-.21 1.11-1.13 1.01-2.01-.29-2.69 1.05-4.72 3.87-5.06.23-.03.47-.08.68-.17 3.2-1.36 5.8 1.92 5.76 4.25-.02 1.25-.11 2.48.62 3.68.28.46-.1 1.32-.18 1.99-.08.65-.38 1.36-.21 1.93.44 1.5-.12 5.23-1.6 6.07-.84.48-2.21.27-3.29.07-1.49-.27-2.48-1.32-3.29-2.6-.69-1.08-1.94-1.25-3.14-1.35-2.44-.22-4.88-.41-7.32-.67-.44-.05-.85-.59-1.28-.59-.77 0-1.57.13-2.3.38-1.17.4-2.23.34-3.4-.07-2.31-.81-4.66-1.33-7.17-.79-1.17.26-2.43.1-3.65.16-.21.01-.43.13-.63.23-.31.17-.58.45-.91.53-1.33.32-2.04 1.29-2.55 2.41-.24.51-.29 1.14-.33 1.72-.1 1.46-.18 2.92-.22 4.38-.04 1.55-.03 3.11-.01 4.66 0 .95.05 1.89.11 2.84.03.54.09 1.08.24 1.59.05.18.42.37.65.38 1.19.05 2.39-.01 3.58.08.37.03.78.36 1.07.66.73.76 1.31 1.7 2.13 2.34.48.38 1.48.67 1.93.42 2.5-1.4 5.3-1.58 7.96-2.33 3.35-.95 2.82-.29 4.11 2.19 1.08 2.06 1.64 4.32 1.56 6.69-.01.41.4.86.31 1.22-.39 1.59-.76 3.23-1.41 4.72-.51 1.16-1.93.82-2.95 1.14-.18.06-.4 0-.6 0-2.53 0-2.39-.17-3.27-2.56-.54-1.48-1.75-2.92-3.03-3.87-1.39-1.03-3.21-1.16-4.93-.27-.37.19-.9.1-1.36.11-1.73.04-3.46.05-5.19.11-1.06.04-1.41.84-1.19 1.66.33 1.28.12 2.52-.49 3.51-1.06 1.69-.38 3.25-.09 4.88.06.31.2.63.16.92-.24 1.68.6 3.14.94 4.7.23 1.06.43 2.13.69 3.18.18.73.45 1.43.89 2.07-.07.52-.39 1.31-.17 1.52.67.64 1.56 1.48 2.37 1.48 2.44.02 4.87-.35 7.32-.5.73-.05 1.47.18 2.2.16 2.13-.04 4.27-.05 6.39-.23 2.74-.23 5.48-.57 8.21-.92 1.68-.21 3.34-.53 5.19-.83ZM205.13 25.68c-2.61.27-5.04.51-7.46.77-2 .21-3.99.43-5.98.69-.51.07-1 .32-1.5.49-.47.16-.94.43-1.41.44-2.52.04-5.05.02-7.57.02-1.58 0-1.9.34-2.04 1.88-.17 1.84-.56 3.68-.56 5.52 0 1.84.35 3.69.55 5.53.08.7.21 1.4.21 2.1.01 2.08.44 3.86 2.42 5.1 1.64 1.02 4.71 1.34 6.25.23.39-.28.7-.74.92-1.17.8-1.63 1.9-1.91 3.74-1.59 2.19.38 2.98 2.34 4.51 3.26-.31 1.4-.01 2.63.69 3.56 1.1 1.46 1.08 3.23 1.72 4.79.03.07.01.16 0 .24-.26 1.77-3.56 4.19-5.36 3.91-.21-.03-.44-.15-.6-.28-.68-.55-1.4-1.08-1.99-1.71-.54-.57-.94-1.26-1.25-1.97-.48-.32-1-.58-1.42-.96-.72-.67-1.42-1.1-2.38-.47-.15.1-.37.13-.55.12-1.18-.07-2.36-.2-3.54-.23-1.65-.04-2.39.99-1.96 2.6.2.75.62 1.53.54 2.25-.29 2.49.78 4.78.89 7.21.07 1.61.57 3.22 1.04 4.78.1.33.93.62 1.42.61 1.26-.03 2.55-.12 3.77-.41.8-.19 1.56-.69 2.24-1.19.87-.64 1.75-.95 2.84-.96 2.22-.02 4.45-.12 6.66-.3.88-.07 1.73-.47 2.61-.67.61-.14 1.25-.3 1.86-.25 2.15.19 4.15-.36 6.13-1.09.36-.13.75-.17 1.13-.25 1.19-.27 2.37-.3 3.13-1.68.68-1.24 2.38-1.18 3.92-.24.67.41 1.31 1.17 1.57 1.91.68 1.98 1.14 4.03 1.7 6.05.1.38.18.81.42 1.09 1.7 1.98 1.55 4.25.66 6.37-.96 2.3-4.7 2.16-6.32.18-1.01-1.23-.83-2.62-1.29-3.9-.19-.53-.3-1.1-.47-1.74-.86.23-1.56.43-2.27.59-.22.05-.5.1-.69.01-2.22-1.02-4.49-.56-6.76-.31-.43.05-.88.06-1.31.06-2.49 0-4.97.07-7.35.91-.22.08-.48.06-.71.05-2.99-.16-5.9.1-8.64 1.46-.55.27-1.23.5-1.81.43-1.67-.19-2.87.55-4.04 1.57-1.7 1.49-3.87.72-4.53-1.5-.47-1.56-.35-3.06 0-4.63.22-.98-.12-2.09.06-3.09.38-2.05-.74-3.78-1.25-5.56-.56-1.97-.69-3.86-.71-5.82-.01-1.01-.05-2.03.02-3.04.05-.82-.17-1.35-.98-1.65-1.48-.55-2.53-1.59-3.09-3.06-.14-.38-.1-.87-.02-1.29.32-1.59 1.61-2.25 2.87-2.97.39-.22.8-.84.78-1.25-.13-2.83-.34-5.67-.6-8.49-.16-1.75-.5-3.48-.64-5.22-.11-1.36.06-2.74-.06-4.1-.1-1.08-.54-2.12-.69-3.19-.1-.75-.2-1.67.14-2.26.71-1.24 1.66-2.35 2.62-3.42.28-.32.92-.43 1.4-.44 2.04-.05 4.09.01 6.13-.04.73-.02 1.46-.24 2.19-.38 1.53-.3 3.05-.67 4.59-.9 1.21-.18 2.44-.33 3.66-.29 2.24.07 4.54.07 6.16 2.11.24.3.94.53 1.28.39 1.72-.68 3.69-.71 5.2-1.99 1.2-1.01 2.48-.99 3.82-.18.62.38 1.35.59 2.01.91 1.66.81 3.05 3.19 1.46 4.99-.29.32-.3.95-.31 1.44-.04 1.6.12 3.21-.06 4.79-.24 2.2-2.66 3.13-4.49 1.85-.26-.18-.54-.33-.82-.46-1.73-.81-2.38-2.14-2.13-4.03.1-.75-.15-1.54-.28-2.61ZM141.18 26.24c1.09-2.18 2.9-2.42 4.89-2.33 1.03.05 2.1.16 3.1-.02 2.09-.37 3.7.89 5.42 1.56.83.33 1.82 1.76 1.73 2.58-.14 1.27-.96 2.6-1.83 3.62-.84.99-2.26.8-3.46.52-1.29-.3-2.35.27-2.4 1.59-.06 1.56-.37 2.82-2.07 3.47-.61.23-1.13 1.02-1.43 1.67-.69 1.49-2.38 1.63-3.36 2.68-1.16 1.24-2.37 2.45-3.41 3.78-.25.32-.09 1.19.17 1.64.74 1.29 1.74 2.44 2.42 3.76.89 1.7 1.97 2.84 3.95 3.46 1.29.4 2.3 1.8 3.34 2.86.68.69 1.18 1.56 1.75 2.35 1.85 2.61 3.69 5.23 5.55 7.84.78 1.09 1.55 2.19 2.43 3.18.24.27.9.36 1.31.26 1.79-.42 2.03-.39 2.8 1.16.69 1.38 1.33 2.79 1.93 4.21.49 1.15-.97 3.37-2.2 3.44-1.67.1-3.36.34-5.02.24-.88-.05-1.71-.73-2.59-1.04-.62-.22-1.28-.35-1.94-.45-1.8-.28-4.32-2.11-4.68-4.19-.26-1.48-.16-2.57.92-3.65.63-.62.11-2.39-.65-3.21-2.05-2.19-4.23-4.3-6.02-6.69-1.45-1.94-3-3.75-4.64-5.52-.9-.97-1.55-2.15-2.35-3.22-.28-.37-.63-.69-1.12-1.22-.98 1.58-1.84 2.95-2.69 4.32-.14.23-.24.57-.45.68-1.63.82-2.43 2.32-3.1 3.86-.33.77-.46 1.65-.54 2.49-.09.9-.12 1.83-.02 2.74.19 1.83.48 3.66.72 5.48.04.31.23.68.13.92-.83 2.01.17 3.59 1.46 4.81 1.43 1.35 1.01 2.93.79 4.33-.25 1.58-1.41 2.84-2.97 3.51-.32.14-.74.07-1.12.07-.92 0-1.88.16-2.74-.07-1.07-.29-2.06-.9-3.07-1.38-.35-.16-.67-.45-1.03-.5-1.6-.21-3.09-1.57-3.34-3.13-.17-1.05 1.18-2.76 2.23-3.05 1.97-.54 3.23-1.28 2.55-3.78-1.08-3.97-1.87-8.02-1.8-12.19.02-1.03-.39-2.06-.54-3.1-.06-.38.06-.78.07-1.17 0-.62 0-1.24-.02-1.87 0-.07-.08-.15-.08-.22.08-1.42.18-2.84.25-4.26.05-.83.23-1.69.06-2.49-.65-3.12-1.41-6.21-2.12-9.32-.1-.46-.19-.93-.2-1.39-.03-1.77-.21-1.96-2.04-1.96-.84 0-1.7.12-2.52-.02-1.19-.21-2.41-1.68-2.56-2.87-.11-.89-.41-1.82-.25-2.67.36-1.92 2.12-2.77 4.22-2.06.89.3 1.48.25 2.1-.47.97-1.12 2.45-1.16 3.71-1.18 1.68-.03 3.43.11 4.75 1.61 1.33 1.5 1.52 3.68.07 5.15-1.83 1.86-2.14 4.12-1.91 6.56.05.59.1 1.18.17 1.77.16 1.26.41 2.42 1.69 3.16 1.07.62 1.59 1.67 1.62 2.97.04 1.38.21 2.75.32 4.13.06.69.44.85.95.47.69-.54 1.35-1.13 1.96-1.76 1.86-1.94 3.72-3.87 5.51-5.88 1.7-1.9 3.31-3.87 4.94-5.83 1.2-1.45 2.41-2.9 3.51-4.42.31-.43.52-1.36.28-1.67-.94-1.19-1.18-2.51-1.21-3.94 0-.28-.23-.56-.3-.74ZM482.55 76.78c-.15-1.72-.12-3.48-.52-5.14-.27-1.11.06-1.65.81-2.21 1.23-.91 3.8-.79 4.36 1.14.15.51.57.93.81 1.42 1.47 3.02 2.59 6.12 2.58 9.55 0 1.18.36 2.38.19 3.52-.12.79-.76 2-1.36 2.13-1.46.31-3.05.47-4.41-.7-1.11-.96-2.28-2.04-3.61-2.49-1.29-.44-2.82-.16-4.25-.14-.66 0-1.36.32-1.98.2-1.4-.27-2.68.08-3.99.41-1.24.3-2.45.64-3.79.35-.81-.18-1.72.19-2.58.17-1.21-.03-2.43-.29-3.64-.29-.85 0-1.85.03-2.52.46-1.58 1.01-3.28.62-4.36-.87-1.14-1.58-1.02-3.26-.9-4.97.07-1 .62-1.97.65-2.96.05-1.46-.16-2.93-.26-4.4-.04-.56-.04-1.11-.08-1.67-.18-2.39-.48-4.75-1.58-6.93-.15-.3-.16-.69-.16-1.04-.02-1.28.09-2.58-.04-3.85-.13-1.19-.54-2.34-.77-3.53-.26-1.38-.48-2.76-.68-4.15-.36-2.47-.67-4.95-1.03-7.43-.35-2.43-.68-4.86-1.14-7.27-.25-1.28-.63-2.58-1.2-3.75-.28-.57-1.1-.99-1.76-1.24-1.26-.48-1.2-1.57-1.39-2.56-.08-.41-.1-.84-.13-1.03.72-1.38 1.33-2.63 2.02-3.85.17-.3.55-.63.86-.66 1.73-.16 3.49-.12 5.21-.38.92-.14 1.76-.74 2.65-1.1.24-.1.59-.22.78-.12.83.42 1.58 1.03 2.44 1.36.95.36 2 .47 2.99.72 1.19.3 2.36.74 3.57.92.98.15 2 0 3.01 0 1.55-.02 3.17-.32 4.62.05 1.07.28 1.07-.36 1.48-.76.38-.37.84-.98 1.23-.96 1.44.09 2.91.27 4.28.7.46.14.7 1.11.94 1.74.2.54.16 1.18.39 1.7.39.86.56 1.58.44 2.63-.14 1.29.45 2.76 1.06 4 1.06 2.17-.27 4.47-2.63 4.69-2.02.19-3.68-.7-5.44-1.27-1.24-.41-1.54-1.75-1.83-2.93-.03-.11 0-.24 0-.36-.04-.83.2-1.84-.2-2.44-.35-.54-1.47-.52-2.12-.94-1.78-1.14-3.9-.74-5.79-1.39-.79-.27-1.75-.07-2.63-.06-.15 0-.35.04-.44.14-.64.7-1.21 1.46-1.89 2.13-.3.3-.79.4-1.18.61-.93.48-1.87.94-2.75 1.48-.16.1-.23.77-.11.86 1.39 1.01.28 2.25.32 3.36.07 1.95-.02 3.9.06 5.84.07 1.69.35 3.38.39 5.07.07 3 1.27 3.9 4.23 3.13.46-.12 1 .08 1.5.13 1.76.2 3.57.78 5.21-.36.85-.59 1.52-1.45 2.38-2.02 1.3-.88 2.54-.53 2.9.97.5 2.09 1.92 3.91 1.69 6.22-.08.77.32 1.59.54 2.37.5 1.8-1.05 4.15-2.86 4.31-.88.08-2.86-1.64-3.13-2.8-.61-2.61-1.15-2.48-3.79-2.25-1.35.12-2.66.59-4 .81-.32.05-.69-.36-1.06-.4-.48-.05-1.1-.12-1.42.13-.3.24-.4.89-.37 1.34.14 2.18 1.17 4.1 1.84 6.12.21.64.2 1.73-.19 2.14-1.42 1.47-.78 3-.47 4.55.1.49.26.96.33 1.45.06.43-.01.88.02 1.31.12 1.61 1.15 2.49 2.74 2.58 1.33.08 2.64.42 3.96.53.61.05 1.24-.22 1.86-.23 2.1-.04 4.23.2 6.28-.11 1.65-.25 3.54-.5 4.52-2.29.57-1.04 1.9-1.19 2.74-.31.41.42.81.85 1.21 1.28.12-.04.24-.07.36-.11ZM584.98 64.28c.42-1.25.8-2.21 1.05-3.2.33-1.28.44-2.63.85-3.87.52-1.54 1.32-2.99 1.86-4.53.28-.8.27-1.7.4-2.55.09-.58.18-1.16.31-1.73.34-1.54.42-3.24 1.14-4.59.84-1.57 1.15-3.22 1.48-4.87.31-1.57 1.03-2.95 1.49-4.42.41-1.33.09-2.89.09-4.48-1.69.28-2.65-.59-3.18-2.03-.18-.5-.33-1.05-.31-1.57.04-.97.03-2.02.4-2.88.4-.91 1.08-1.88 1.9-2.36.61-.35 1.72-.13 2.49.17 1.33.52 3.45.39 4.39-.69 1.02-1.16 2.27-.77 3.48-.76.31 0 .62.12.92.13 1.81.05 3.71 2.24 3.47 4.07-.12.94-.33 1.88-.55 2.8-.4 1.7-2.16 2.02-3.17 3.09-.49.52-.96 1.06-1.36 1.65-.78 1.13-1.54 2.27-2.25 3.45-.31.52-.47 1.13-.67 1.71-.87 2.54-1.77 5.07-2.6 7.62-.66 2.04-1.63 4.08-1.73 6.16-.09 1.69-.72 3.14-1.08 4.68-.43 1.85-1.34 3.58-1.92 5.39-.27.84-.24 1.78-.38 2.67-.35 2.35-.41 4.81-1.18 7.01-.69 1.98-.72 3.78-.26 5.71.08.34-.06.75.06 1.06.16.42.44.81.73 1.16 1.16 1.42 2.45 2.76 3.45 4.29.28.42-.09 1.47-.44 2.07-.52.86-1.17 1.8-2 2.27-.71.41-1.78.31-2.67.26-1.57-.1-3.13-.32-4.7-.51-.74-.09-1.48-.22-2.2-.39-1.14-.26-2.26-.64-3.4-.85-1.18-.22-2.9-2.09-2.94-3.29-.04-1.17-.09-2.32 1.04-3.09.19-.13.38-.42.55-.4 1.76.2 2.71-1.1 3.7-2.11.42-.43.97-1.18.44-2.12-1.26-2.24-2.23-4.65-4.21-6.42-.24-.22-.37-.6-.48-.93-.32-1-.43-2.1-1.48-2.71-.11-.07-.22-.28-.2-.41.32-1.93-1.19-3.18-1.76-4.78-.43-1.19-.7-2.44-1.23-3.58-.61-1.29-1.45-2.48-2.15-3.73-.42-.75-1.1-1.55-1.09-2.32.01-1.24-.37-2.25-.9-3.29-.22-.44-.34-1.05-.22-1.51.53-2.05-.28-3.83-1.07-5.59-.87-1.93-1.64-3.84-2.07-5.94-.28-1.38-1.4-2.59-2.13-3.88-.54-.95-1.06-1.92-1.61-2.86-.25-.42-.58-.79-.82-1.22-.32-.57-.91-1.22-.83-1.74.27-1.66.64-3.48 2.5-4.07 1.14-.36 1.95-1.46 3.49-1.1 1.11.26 2.43-.41 3.66-.53.64-.06 1.31.19 1.97.27.31.04.72.16.94.02 1.22-.78 2.12-.05 2.73.76.75 1 1.34 2.3.57 3.5-.7 1.09-1.59 2.14-2.64 2.88-.68.48-1.76.27-2.63.76-.7.4-1.12.8-.93 1.55.39 1.57.77 3.15 1.35 4.66 1.04 2.69 1.98 5.37 2.29 8.28.09.87.42 1.94 1.67 2.31 2 .59 2.24 2.3 2.22 4.06 0 1.36.03 2.6 1.05 3.77.6.69.52 1.92.92 2.84.74 1.67 1.5 3.35 2.44 4.92 1.16 1.95 2.51 3.78 3.94 5.91ZM68.19 51.93c-.11-.95-.27-1.84-.3-2.73-.02-.66-.07-1.47.27-1.94.64-.87.39-1.83.64-2.71.62-2.16-.38-4.05-.72-6.05-.03-.15-.08-.34-.19-.42-1.18-.88-1.51-2.12-1.54-3.49 0-.3-.12-.74.04-.88 1.34-1.25 2.32-3.1 4.66-2.7.44.07 1.04-.21 1.41-.51 1.02-.82 2.18-.75 3.37-.79.42-.01.99-.29 1.21-.63.88-1.35 3.54-1.35 4.27.18.92 1.92 1.56 3.97 2.45 5.9.36.77 1.05 1.41 1.67 2.03.55.55 1.34.9 1.79 1.51.92 1.24 1.51 2.6 1.67 4.22.13 1.37.78 2.67 1.14 4.03.43 1.61.71 3.27 1.2 4.86.76 2.51.96 5.18 2.54 7.47 1.52 2.19 2.64 4.66 4.1 6.89 1.33 2.03 2.88 3.93 4.36 5.85.19.24.61.51.87.46 1.89-.33 2.62 1.08 3.37 2.28 1.52 2.44.63 5.2-.74 7.16-.18.26-.59.45-.91.49-2.02.27-4.06.5-6.09.72-.99.11-2.02-.23-2.96.56-.35.29-1.15.09-1.75.05-.52-.03-1.03-.15-1.55-.24-.63-.49-1.3-1.02-1.99-1.54-1.31-.99-1.36-3.86-.08-4.95.14-.12.43-.32.49-.27 1.19.95 1.87-.6 3.19-.42-.8-1.16-1.47-2.05-2.05-2.99-.2-.33-.32-.81-.26-1.19.14-.9-.02-1.63-.53-2.44-.79-1.27-1.65-2.51-1.82-4.15-.12-1.13-.82-2.27-1.47-3.25-.3-.45-1.13-.77-1.72-.78-1.69-.02-3.19-.32-4.69-1.25-.92-.57-2.31-.43-3.5-.48-1.35-.05-2.71.08-4.07.06-.74-.01-1.12.25-1.46.92-.95 1.91-1.51 3.88-1.63 6.03-.05.89-.67 1.79-1.18 2.59-.64 1.02-1.46 1.92-2.14 2.92-.78 1.13-.29 2.1.52 2.98.43.46.83.94 1.28 1.39 1.32 1.31.95 2.73.37 4.21-.76 1.92-1.22 2.21-3.35 2.27-.81.02-1.61.33-2.42.41-.59.06-1.21-.14-1.8-.07-2.4.28-4.32-.8-6.07-2.2-1.14-.91-1.37-2.26-1.17-3.66.04-.29.21-.66.44-.82 1.67-1.16 3.4-2.26 5.06-3.44.45-.32.9-.79 1.1-1.29.62-1.52 2-2.56 2.19-4.46.22-2.33 1.15-4.59 1.81-6.88.39-1.37.66-2.65-.19-4.02-1.24-1.99.07-4.28 2.84-4.79Zm15.8.29c-.02-.08-.07-.51-.2-.92-.73-2.39-1.64-4.74-2.16-7.17-.37-1.73-1.26-3.03-2.42-4.19-.32-.32-1.43-.45-1.59-.24-.68.93-1.31 1.97-1.66 3.07-.62 1.96-.23 4.16-1.31 6.04-.05.09-.01.24-.03.35-.13 1-.3 1.99-.38 2.99-.03.31.07.81.29.94.62.39 1.32.83 2.02.9 1.88.19 3.71.82 5.69.38 1.35-.3 1.74-.4 1.74-2.15ZM504.5 48.05c-.27-1.58-.5-2.83-.7-4.09-.2-1.32-.36-2.64-.56-3.96-.04-.27-.18-.51-.24-.78-.25-1.09-.49-2.19-.74-3.29-.17-.71-.41-1.41-.52-2.14-.17-1.08-.16-2.2-.4-3.27-.21-.96-.46-2.03-1.05-2.75-.6-.73-1.68-1.06-2.49-1.65-.59-.43-1.5-.96-1.54-1.5-.1-1.3-.09-2.8.49-3.89.36-.66 1.85-.94 2.85-.99 1.46-.07 2.52-.81 3.7-1.46.47-.26 1.12-.24 1.69-.28.35-.03.73 0 1.04.13.65.27 1.33.54 1.9.95.86.62 1.67 1.31 2.43 2.05.25.25.41.73.39 1.09-.08 1.16-.05 2.39-.46 3.45-.6 1.54-1.69 2.9-2.3 4.44-.35.88-.27 1.99-.2 2.98.12 1.77.32 3.54.58 5.29.27 1.85.64 3.67.94 5.52.08.47.1.96.05 1.43-.17 1.44-.52 2.87-.56 4.31-.04 1.61.16 3.23.33 4.84.16 1.51.41 3.01.64 4.52.27 1.7.6 3.38.82 5.09.16 1.18.17 2.38.26 3.58.02.25.07.54.21.72.89 1.17 1.74 2.33.97 3.92-.09.19-.07.5.02.69.85 1.73.8 3.49.32 5.3-.24.91.61 1.65 1.72 1.57 1.05-.08 2.11-.15 3.15-.26 3.09-.32 6.17-.72 9.27-.96 1.87-.14 3.76-.05 5.64-.04 1.19 0 1.98-.45 2.8-1.41.82-.96 1.76-2.28 3.49-1.88.22.05.61-.26.8-.5.93-1.19 1.1-2.56 1.03-4.03-.08-1.85 1.86-3.63 3.67-3.93 1.37-.23 2.02.41 2.49 1.38.45.91 1.16 1.69.79 2.96-.47 1.61-.65 3.33-.71 5-.04 1.15.41 2.3.56 3.46.14 1.13.37 2.31.19 3.41-.1.61-.87 1.19-1.45 1.64-.76.59-1.58 1.26-2.47 1.46-.83.19-1.87-.03-2.68-.37-1.37-.59-2.58-1.56-3.95-2.1-.85-.33-1.89-.22-2.84-.23-2.84-.02-5.68-.05-8.52 0-2.79.05-5.64-.14-8.33.4-2.55.52-5.35.28-7.62 1.95-.09.07-.22.16-.32.15-1.82-.26-3.88.47-5.34-1.28-.13-.15-.29-.37-.45-.38-1.38-.14-1.79-1.18-1.88-2.26-.09-1.07.05-2.17.24-3.24.21-1.15.61-2.27.88-3.41.06-.24-.14-.52-.15-.79-.04-.55-.25-1.22-.02-1.62 1.04-1.8.5-3.58.3-5.45-.24-2.25.06-4.55-.13-6.81-.12-1.44-.65-2.85-1.06-4.26-.57-1.96-1.32-3.88-1.77-5.87-.39-1.72 1.96-3.46 3.78-2.92.18.05.36.12 1 .35ZM641.69 89.73c-.98.16-1.96.47-2.93.45-.95-.02-1.91-.33-2.83-.6-2.55-.74-5.17-.83-7.76-.61-1.54.13-2.23-.65-2.62-1.79-.38-1.09-.65-2.29.58-3.2.67-.5 1.13-1.34 1.84-1.7.6-.3 1.56-.37 2.14-.09.95.46 1.77.48 2.7.11.43-.17.87-.33 1.33-.41.8-.13 1.36-1.15 1.42-2.47.01-.27-.17-.67-.04-.79.9-.89.57-1.86.52-2.94-.06-1.39-.65-2.46-1.14-3.65-.52-1.28-.9-2.65-.47-4.11.19-.67.33-1.52.08-2.11-.6-1.4-.25-2.78-.27-4.18-.04-2.94-.1-5.88-.29-8.81-.05-.81-.45-1.67-.93-2.35-.67-.96-.64-1.94-.33-2.9.36-1.1.48-2.36 1.76-3.01 1.51-.77 1.86-1.82 1.51-3.48-.28-1.33-.36-2.71-.71-4.02-.53-1.96-.75-3.92-.72-5.94.01-.92-1.02-1.44-1.96-1.2-1.05.28-2.11.69-3.17.74-1.96.1-2.86-1.29-3.13-3.24-.2-1.44.91-1.79 1.38-2.62.16-.28 1.01-.25 1.54-.22 1.67.08 3.25.12 4.63-1.17.95-.89 2.15-1.53 3.23-2.27.19-.13.49-.21.58-.39 1.17-2.2 3.22-2.29 5.33-2.29 1.6 0 3.2.02 4.8 0 1.02-.02 1.37.55 1.73 1.42.77 1.88-.32 3.46-.55 5.19-.24 1.8-1.92 2.08-2.78 3.15-1.27 1.57-2.84 1.63-4.58 1.58-.25 0-.75.61-.74.93.02 2.3-.14 4.59.52 6.88.4 1.4.06 3.01.12 4.52.05 1.37.21 2.74.29 4.12.01.23-.08.46-.11.69-.28 1.61-.78 3.22-.78 4.83 0 2.5.35 5 .55 7.5.02.24.03.48.04.72.07 1.61.15 3.18.48 4.8.41 1.97.18 4.13-.12 6.16-.38 2.57-.69 5.02.67 7.44.58 1.04.84 2.25 1.28 3.38.34.86.86 1.44 1.93 1.44 2.2 0 3.8 1.98 3.17 4.07-.42 1.4-1.8 1.99-3.12 2.28-1.3.29-2.66.27-4 .39l-.03-.2ZM351.76 14.4c-.19.92-.31 1.89-.61 2.8-.33 1.02-1.24 1.32-2.21 1.17-1.88-.3-2.99.45-3.33 2.35-.02.12.03.31-.03.35-1.5.99-.43 2.46-.68 3.68-.05.22-.02.49.07.71.53 1.36 1.09 2.71 1.65 4.09.65-.14 1.24-.07 1.19.91 0 .12-.02.27.04.35 1.46 1.99 1.21 4.56 2.31 6.69.5.96.6 2.12 1 3.15.14.37.6.64.94.92 1.35 1.12 2.82 2.09 4.63 1.42.61-.22 1.08-1.03 1.44-1.66.53-.94.65-2.22 1.39-2.88 1.08-.97 2.57-1.42 4.12-1.25.17.02.44.16.47.28.4 1.68 2.65 2.46 2.22 4.53 1.44 1.29.8 3.42 1.98 4.85.7.85.28 2.5-.58 3.18-.37.29-.8.54-1.08.91-.8 1.01-1.62 1.16-2.88.7-.75-.27-1.78.21-2.65.51-.82-.05-1.12-1.7-2.41-.72-.98-1.49-2.5-.94-3.81-1.11-.18-.02-.42.14-.57.07-1.21-.59-2.4-1.24-3.62-1.82-.66-.31-1.37-.52-2.07-.74-.4-.13-.97-.05-1.21-.3-2-2.07-4.49-3.66-5.67-6.53-.93-2.25-1.7-4.48-1.99-6.89-.21-1.75-.45-3.5-.71-5.24-.06-.37-.34-.71-.45-1.08-.2-.66-.38-1.34-.53-2.01-.16-.76-.43-1.55-.35-2.29.12-1.14.35-2.32.8-3.37.95-2.19 2.06-4.32 3.14-6.44.6-1.17 1.24-2.33 1.96-3.42.33-.5.89-.87 1.39-1.23.64-.47 1.28-.93 1.98-1.28 1.83-.92 3.78-1.52 5.75-.57 1.83.88 3.49 2.11 5.32 2.98 1.03.49 2.25.64 3.4.78 1.02.13 2.08.01 3.11.06.24.01.48.25.68.43.93.81 1.83 1.63 2.76 2.44.59.51.94 2.22.46 3.08-1.07 1.94-1.3 4-1.26 6.17.03 1.37-.37 2.65-2.03 3.07-.49.12-.86.71-1.36.88-1.31.46-2.52-.06-3.4-.93-.76-.75-2.07-1.35-1.65-2.84.05-.19.06-.39.11-.57.15-.58.62-1.32.41-1.7-.6-1.1-1.36-2.17-2.27-3.03-.55-.51-1.19-.72-1.17-1.68.02-.97-1.21-1.82-2.4-1.87l-1.73-.08Z" style="fill:#000;stroke-width:0"/></svg>